#define 1478811963088_width 64
#define 1478811963088_height 64
static char 1478811963088_bits[] = {
  0x00, 0x00, 0x00, 0x00, 0x00, 0x00, 0x00, 0x00, 0x00, 0x00, 0x00, 0x00, 
  0x00, 0x00, 0x00, 0x00, 0x00, 0x00, 0x00, 0x00, 0x00, 0x00, 0x00, 0x00, 
  0x00, 0x00, 0x00, 0x00, 0x00, 0x00, 0x00, 0x00, 0x00, 0x00, 0x00, 0x00, 
  0x00, 0x00, 0x00, 0x00, 0x00, 0x00, 0x00, 0x00, 0x00, 0x00, 0x00, 0x00, 
  0x00, 0x00, 0x00, 0xC0, 0x03, 0x00, 0x00, 0x00, 0x00, 0x00, 0x00, 0xC0, 
  0x03, 0x00, 0x00, 0x00, 0x00, 0x00, 0x00, 0xC0, 0x03, 0x00, 0x00, 0x00, 
  0x00, 0x00, 0x00, 0xC0, 0x03, 0x00, 0x00, 0x00, 0x00, 0x00, 0x00, 0xC0, 
  0x03, 0x00, 0x00, 0x00, 0x00, 0x00, 0x00, 0xC0, 0x03, 0x00, 0x00, 0x00, 
  0x00, 0x00, 0x00, 0xC0, 0x03, 0x00, 0x00, 0x00, 0x00, 0xE0, 0x01, 0xC0, 
  0x03, 0x80, 0x07, 0x00, 0x00, 0xE0, 0x03, 0x00, 0x00, 0xC0, 0x07, 0x00, 
  0x00, 0xE0, 0x07, 0x00, 0x00, 0xE0, 0x07, 0x00, 0x00, 0xE0, 0x0F, 0x00, 
  0x00, 0xF0, 0x07, 0x00, 0x00, 0xC0, 0x0F, 0x00, 0x00, 0xF0, 0x03, 0x00, 
  0x00, 0x80, 0x0F, 0xF8, 0x1F, 0xF0, 0x01, 0x00, 0x00, 0x00, 0x0F, 0xFF, 
  0xFF, 0xF0, 0x00, 0x00, 0x00, 0x00, 0x80, 0xFF, 0xFF, 0x01, 0x00, 0x00, 
  0x00, 0x00, 0xC0, 0xFF, 0xFF, 0x03, 0x00, 0x00, 0x00, 0x00, 0xE0, 0xFF, 
  0xFF, 0x07, 0x00, 0x00, 0x00, 0x00, 0xF0, 0x0F, 0xF0, 0x0F, 0x00, 0x00, 
  0x00, 0x00, 0xF8, 0x03, 0xC0, 0x1F, 0x00, 0x00, 0x00, 0x00, 0xF8, 0x01, 
  0x80, 0x1F, 0x00, 0x00, 0x00, 0x00, 0xFC, 0x00, 0x00, 0x1F, 0x00, 0x00, 
  0x00, 0x00, 0xFC, 0x00, 0x00, 0x3F, 0x00, 0x00, 0x00, 0x00, 0x7C, 0x00, 
  0x00, 0x3E, 0x00, 0x00, 0x00, 0x00, 0x7C, 0x00, 0x00, 0x3E, 0x00, 0x00, 
  0xC0, 0x3F, 0x7C, 0x00, 0x00, 0x3E, 0xFC, 0x03, 0xC0, 0x3F, 0x7C, 0x00, 
  0x00, 0x3E, 0xFC, 0x03, 0xC0, 0x3F, 0x7C, 0x00, 0x00, 0x3E, 0xFC, 0x03, 
  0xC0, 0x3F, 0x7C, 0x00, 0x00, 0x3E, 0xFC, 0x03, 0x00, 0x00, 0x7C, 0x00, 
  0x00, 0x3E, 0x00, 0x00, 0x00, 0x00, 0x7C, 0x00, 0x00, 0x3E, 0x00, 0x00, 
  0x00, 0x00, 0xFC, 0x00, 0x00, 0x3F, 0x00, 0x00, 0x00, 0x00, 0xFC, 0x00, 
  0x00, 0x1F, 0x00, 0x00, 0x00, 0x00, 0xF8, 0x01, 0x80, 0x1F, 0x00, 0x00, 
  0x00, 0x00, 0xF8, 0x03, 0xC0, 0x0F, 0x00, 0x00, 0x00, 0x00, 0xF0, 0x0F, 
  0xF0, 0x0F, 0x00, 0x00, 0x00, 0x00, 0xE0, 0xFF, 0xFF, 0x07, 0x00, 0x00, 
  0x00, 0x00, 0xC0, 0xFF, 0xFF, 0x03, 0x00, 0x00, 0x00, 0x00, 0x80, 0xFF, 
  0xFF, 0x01, 0x00, 0x00, 0x00, 0x00, 0x0F, 0xFF, 0x7F, 0xF0, 0x00, 0x00, 
  0x00, 0x80, 0x0F, 0xF8, 0x1F, 0xF0, 0x01, 0x00, 0x00, 0xC0, 0x0F, 0x00, 
  0x00, 0xF0, 0x03, 0x00, 0x00, 0xE0, 0x0F, 0x00, 0x00, 0xF0, 0x07, 0x00, 
  0x00, 0xE0, 0x07, 0x00, 0x00, 0xE0, 0x07, 0x00, 0x00, 0xE0, 0x03, 0x00, 
  0x00, 0xC0, 0x07, 0x00, 0x00, 0xE0, 0x01, 0xC0, 0x03, 0x80, 0x07, 0x00, 
  0x00, 0x00, 0x00, 0xC0, 0x03, 0x00, 0x00, 0x00, 0x00, 0x00, 0x00, 0xC0, 
  0x03, 0x00, 0x00, 0x00, 0x00, 0x00, 0x00, 0xC0, 0x03, 0x00, 0x00, 0x00, 
  0x00, 0x00, 0x00, 0xC0, 0x03, 0x00, 0x00, 0x00, 0x00, 0x00, 0x00, 0xC0, 
  0x03, 0x00, 0x00, 0x00, 0x00, 0x00, 0x00, 0xC0, 0x03, 0x00, 0x00, 0x00, 
  0x00, 0x00, 0x00, 0xC0, 0x03, 0x00, 0x00, 0x00, 0x00, 0x00, 0x00, 0x00, 
  0x00, 0x00, 0x00, 0x00, 0x00, 0x00, 0x00, 0x00, 0x00, 0x00, 0x00, 0x00, 
  0x00, 0x00, 0x00, 0x00, 0x00, 0x00, 0x00, 0x00, 0x00, 0x00, 0x00, 0x00, 
  0x00, 0x00, 0x00, 0x00, 0x00, 0x00, 0x00, 0x00, 0x00, 0x00, 0x00, 0x00, 
  0x00, 0x00, 0x00, 0x00, 0x00, 0x00, 0x00, 0x00, };
