#define 1478725830002_width 60
#define 1478725830002_height 60
static char 1478725830002_bits[] = {
  0x00, 0x00, 0x00, 0x00, 0x00, 0x00, 0x00, 0x00, 0x00, 0x00, 0x00, 0x00, 
  0x00, 0x00, 0x00, 0x00, 0x00, 0x00, 0x00, 0x00, 0x00, 0x00, 0x00, 0x00, 
  0x00, 0x00, 0x00, 0x00, 0x00, 0x00, 0x00, 0x00, 0x00, 0x00, 0x00, 0x00, 
  0x00, 0x00, 0x00, 0x00, 0x00, 0x00, 0x00, 0x00, 0x00, 0x00, 0x00, 0x00, 
  0x00, 0x00, 0x00, 0x00, 0x00, 0x00, 0x00, 0x00, 0x00, 0x00, 0x00, 0x00, 
  0x00, 0x00, 0x00, 0x00, 0x00, 0x00, 0x00, 0xF8, 0x03, 0x00, 0x00, 0x00, 
  0x00, 0x00, 0x80, 0xFF, 0x7F, 0x00, 0x00, 0x00, 0x00, 0x00, 0xE0, 0xFF, 
  0x7F, 0x00, 0x00, 0x00, 0x00, 0x00, 0xF8, 0xFF, 0x3F, 0x00, 0x00, 0x00, 
  0x00, 0x00, 0xFC, 0xFF, 0x0F, 0x00, 0x00, 0x00, 0x00, 0x00, 0xFF, 0xFF, 
  0x07, 0x00, 0x00, 0x00, 0x00, 0x80, 0xFF, 0xFF, 0x03, 0x00, 0x00, 0x00, 
  0x00, 0xC0, 0xFF, 0xFF, 0x03, 0x00, 0x00, 0x00, 0x00, 0xC0, 0xFF, 0xFC, 
  0x01, 0x00, 0x00, 0x00, 0x00, 0xE0, 0x7F, 0xFE, 0x01, 0x00, 0x00, 0x00, 
  0x00, 0xF0, 0x1F, 0xFE, 0x00, 0x00, 0x00, 0x00, 0x00, 0xF0, 0x0F, 0xFE, 
  0x00, 0x00, 0x00, 0x00, 0x00, 0xF8, 0x07, 0xFE, 0x00, 0x00, 0x00, 0x00, 
  0x00, 0xF8, 0x07, 0x7E, 0x00, 0x00, 0x00, 0x00, 0x00, 0xFC, 0x03, 0x7F, 
  0x00, 0x00, 0x00, 0x00, 0x00, 0xFC, 0x01, 0x7F, 0x00, 0x00, 0x00, 0x00, 
  0x00, 0xFC, 0x01, 0x7F, 0x00, 0x00, 0x00, 0x00, 0x00, 0xFC, 0x01, 0x7E, 
  0x00, 0x00, 0x00, 0x00, 0x00, 0xFE, 0x00, 0x7E, 0x00, 0x00, 0x00, 0x00, 
  0x00, 0xFE, 0x00, 0xFE, 0x00, 0x00, 0x00, 0x00, 0x00, 0xFE, 0x00, 0xFE, 
  0x00, 0x00, 0x00, 0x00, 0x00, 0xFE, 0x00, 0xFE, 0x00, 0x00, 0x00, 0x00, 
  0x00, 0xFE, 0x00, 0xFE, 0x01, 0x00, 0x00, 0x00, 0x00, 0xFE, 0x00, 0xFC, 
  0x03, 0x00, 0x00, 0x00, 0x00, 0xFE, 0x00, 0xFC, 0x03, 0x00, 0x00, 0x00, 
  0x00, 0xFE, 0x00, 0xF8, 0x07, 0x00, 0x00, 0x00, 0x00, 0xFC, 0x01, 0xF8, 
  0x0F, 0x00, 0x00, 0x00, 0x00, 0xFC, 0x01, 0xF0, 0x1F, 0x00, 0x00, 0x00, 
  0x00, 0xFC, 0x01, 0xF0, 0x7F, 0x00, 0x00, 0x00, 0x00, 0xFC, 0x03, 0xE0, 
  0xFF, 0x00, 0x00, 0x00, 0x00, 0xF8, 0x07, 0xC0, 0xFF, 0x0F, 0x06, 0x00, 
  0x00, 0xF8, 0x07, 0x80, 0xFF, 0xFF, 0x07, 0x00, 0x00, 0xF0, 0x0F, 0x00, 
  0xFF, 0xFF, 0x03, 0x00, 0x00, 0xF0, 0x1F, 0x00, 0xFC, 0xFF, 0x03, 0x00, 
  0x00, 0xE0, 0x7F, 0x00, 0xF8, 0xFF, 0x01, 0x00, 0x00, 0xC0, 0xFF, 0x00, 
  0xE0, 0xFF, 0x00, 0x00, 0x00, 0xC0, 0xFF, 0x07, 0xF8, 0x7F, 0x00, 0x00, 
  0x00, 0x80, 0xFF, 0xFF, 0xFF, 0x3F, 0x00, 0x00, 0x00, 0x00, 0xFE, 0xFF, 
  0xFF, 0x1F, 0x00, 0x00, 0x00, 0x00, 0xFC, 0xFF, 0xFF, 0x0F, 0x00, 0x00, 
  0x00, 0x00, 0xF8, 0xFF, 0xFF, 0x07, 0x00, 0x00, 0x00, 0x00, 0xE0, 0xFF, 
  0xFF, 0x01, 0x00, 0x00, 0x00, 0x00, 0x80, 0xFF, 0x3F, 0x00, 0x00, 0x00, 
  0x00, 0x00, 0x00, 0xF8, 0x03, 0x00, 0x00, 0x00, 0x00, 0x00, 0x00, 0x00, 
  0x00, 0x00, 0x00, 0x00, 0x00, 0x00, 0x00, 0x00, 0x00, 0x00, 0x00, 0x00, 
  0x00, 0x00, 0x00, 0x00, 0x00, 0x00, 0x00, 0x00, 0x00, 0x00, 0x00, 0x00, 
  0x00, 0x00, 0x00, 0x00, 0x00, 0x00, 0x00, 0x00, 0x00, 0x00, 0x00, 0x00, 
  0x00, 0x00, 0x00, 0x00, 0x00, 0x00, 0x00, 0x00, 0x00, 0x00, 0x00, 0x00, 
  0x00, 0x00, 0x00, 0x00, 0x00, 0x00, 0x00, 0x00, 0x00, 0x00, 0x00, 0x00, 
  };
