#define 1478811990784_width 64
#define 1478811990784_height 64
static char 1478811990784_bits[] = {
  0x00, 0x00, 0x00, 0x00, 0x00, 0x00, 0x00, 0x00, 0x00, 0x00, 0x00, 0x00, 
  0x00, 0x00, 0x00, 0x00, 0x00, 0x00, 0x00, 0x00, 0x00, 0x00, 0x00, 0x00, 
  0x00, 0x00, 0x00, 0x00, 0x00, 0x00, 0x00, 0x00, 0x00, 0x00, 0x00, 0x00, 
  0x00, 0x00, 0x00, 0x00, 0x00, 0x00, 0x00, 0x00, 0x00, 0x00, 0x00, 0x00, 
  0x00, 0x00, 0x00, 0x00, 0x00, 0x00, 0x00, 0x00, 0x00, 0x00, 0x00, 0x00, 
  0x00, 0x00, 0x00, 0x00, 0x00, 0x00, 0x00, 0x00, 0x00, 0x00, 0x00, 0x00, 
  0x00, 0x00, 0x00, 0x00, 0x00, 0x00, 0x00, 0x00, 0x00, 0x00, 0x00, 0x00, 
  0x00, 0x00, 0x00, 0x00, 0x00, 0x00, 0x00, 0x00, 0x00, 0x00, 0x00, 0x00, 
  0x00, 0x00, 0x00, 0x00, 0xC0, 0x00, 0x00, 0x00, 0x00, 0x00, 0x00, 0x00, 
  0xFE, 0x1F, 0x00, 0x00, 0x00, 0x00, 0x00, 0x80, 0xFF, 0x7F, 0x00, 0x00, 
  0x00, 0x00, 0x00, 0xC0, 0xFF, 0xFF, 0x01, 0x00, 0x00, 0x00, 0x00, 0xE0, 
  0xFF, 0xFF, 0x03, 0x00, 0x00, 0x00, 0x00, 0xF0, 0x3F, 0xFE, 0x07, 0x00, 
  0x00, 0x00, 0x80, 0xFF, 0x07, 0xF0, 0x7F, 0x00, 0x00, 0x00, 0xE0, 0xFF, 
  0x01, 0xE0, 0xFF, 0x03, 0x00, 0x00, 0xF8, 0xFF, 0x00, 0x80, 0xFF, 0x07, 
  0x00, 0x00, 0xFC, 0x7F, 0x00, 0x00, 0xFF, 0x0F, 0x00, 0x00, 0xFC, 0x3F, 
  0x00, 0x00, 0xFF, 0x1F, 0x00, 0x00, 0xFE, 0xF1, 0x07, 0x00, 0xC0, 0x3F, 
  0x00, 0x00, 0x7F, 0xFF, 0x7F, 0x00, 0x00, 0x3F, 0x00, 0x00, 0xFF, 0xFF, 
  0xFF, 0x01, 0x00, 0x7E, 0x00, 0x00, 0xFF, 0xFF, 0xFF, 0x07, 0x00, 0x7C, 
  0x00, 0x80, 0xFF, 0xFF, 0xFF, 0x0F, 0x00, 0x7C, 0x00, 0x80, 0xFF, 0x0F, 
  0xF8, 0x1F, 0x00, 0x7C, 0x00, 0x80, 0xFF, 0x01, 0xC0, 0x3F, 0x00, 0x78, 
  0x00, 0x80, 0xFF, 0x00, 0x80, 0x7F, 0x00, 0x7C, 0x00, 0xFC, 0x3F, 0x00, 
  0x00, 0xFE, 0x1F, 0x7C, 0x80, 0xFF, 0x1F, 0x00, 0x00, 0xFC, 0xFF, 0x7C, 
  0xE0, 0xFF, 0x0F, 0x00, 0x00, 0xF8, 0xFF, 0x7F, 0xF0, 0xFF, 0x07, 0x00, 
  0x00, 0xF0, 0xFF, 0x3F, 0xF8, 0xFF, 0x07, 0x00, 0x00, 0xF0, 0xFF, 0x3F, 
  0xFC, 0x07, 0x02, 0x00, 0x00, 0x20, 0xF0, 0x1F, 0xFC, 0x01, 0x00, 0x00, 
  0x00, 0x00, 0xC0, 0x1F, 0xFE, 0x00, 0x00, 0x00, 0x00, 0x00, 0x80, 0x3F, 
  0x7E, 0x00, 0x00, 0x00, 0x00, 0x00, 0x00, 0x3F, 0x3F, 0x00, 0x00, 0x00, 
  0x00, 0x00, 0x00, 0x7E, 0x1F, 0x00, 0x00, 0x00, 0x00, 0x00, 0x00, 0x7C, 
  0x1F, 0x00, 0x00, 0x00, 0x00, 0x00, 0x00, 0x7C, 0x1F, 0x00, 0x00, 0x00, 
  0x00, 0x00, 0x00, 0x7C, 0x1F, 0x00, 0x00, 0x00, 0x00, 0x00, 0x00, 0x7C, 
  0x0F, 0x00, 0x00, 0x00, 0x00, 0x00, 0x00, 0x78, 0x1F, 0x00, 0x00, 0x00, 
  0x00, 0x00, 0x00, 0x7C, 0x1F, 0x00, 0x00, 0x00, 0x00, 0x00, 0x00, 0x7C, 
  0x1F, 0x00, 0x00, 0x00, 0x00, 0x00, 0x00, 0x7C, 0x3F, 0x00, 0x00, 0x00, 
  0x00, 0x00, 0x00, 0x7E, 0x3F, 0x00, 0x00, 0x00, 0x00, 0x00, 0x00, 0x7E, 
  0x7E, 0x00, 0x00, 0x00, 0x00, 0x00, 0x00, 0x3F, 0xFE, 0x00, 0x00, 0x00, 
  0x00, 0x00, 0x80, 0x3F, 0xFC, 0x03, 0x1C, 0x00, 0x00, 0x1C, 0xE0, 0x1F, 
  0xF8, 0x9F, 0x3F, 0x00, 0x00, 0xFE, 0xFC, 0x0F, 0xF0, 0xFF, 0x7F, 0x00, 
  0x00, 0xFF, 0xFF, 0x07, 0xE0, 0xFF, 0xFF, 0x00, 0x80, 0xFF, 0xFF, 0x03, 
  0xC0, 0xFF, 0xFF, 0x03, 0xE0, 0xFF, 0xFF, 0x01, 0x00, 0xFF, 0xFF, 0x3F, 
  0xFE, 0xFF, 0x7F, 0x00, 0x00, 0x60, 0xF8, 0xFF, 0xFF, 0x0F, 0x03, 0x00, 
  0x00, 0x00, 0xE0, 0xFF, 0xFF, 0x03, 0x00, 0x00, 0x00, 0x00, 0x80, 0xFF, 
  0xFF, 0x00, 0x00, 0x00, 0x00, 0x00, 0x00, 0xFE, 0x3F, 0x00, 0x00, 0x00, 
  0x00, 0x00, 0x00, 0x00, 0x00, 0x00, 0x00, 0x00, };
