<?xml version="1.0" encoding="UTF-8" standalone="no"?>
<!-- Generator: Adobe Illustrator 15.1.0, SVG Export Plug-In . SVG Version: 6.00 Build 0)  -->

<svg
   xmlns:dc="http://purl.org/dc/elements/1.1/"
   xmlns:cc="http://creativecommons.org/ns#"
   xmlns:rdf="http://www.w3.org/1999/02/22-rdf-syntax-ns#"
   xmlns:svg="http://www.w3.org/2000/svg"
   xmlns="http://www.w3.org/2000/svg"
   xmlns:sodipodi="http://sodipodi.sourceforge.net/DTD/sodipodi-0.dtd"
   xmlns:inkscape="http://www.inkscape.org/namespaces/inkscape"
   version="1.1"
   id="Layer_1"
   x="0px"
   y="0px"
   width="64"
   height="64"
   viewBox="0 0 512 512"
   enable-background="new 0 0 512 512"
   xml:space="preserve"
   inkscape:version="0.91 r13725"
   sodipodi:docname="clear_day.svg"
   inkscape:export-filename="C:\Users\zinet\Documents\Arduino\esp8266-projects\weather-station\resources\svg\clear_day.png"
   inkscape:export-xdpi="11.22807"
   inkscape:export-ydpi="11.22807"><metadata
     id="metadata3829"><rdf:RDF><cc:Work
         rdf:about=""><dc:format>image/svg+xml</dc:format><dc:type
           rdf:resource="http://purl.org/dc/dcmitype/StillImage" /></cc:Work></rdf:RDF></metadata><defs
     id="defs3827" /><sodipodi:namedview
     pagecolor="#ffffff"
     bordercolor="#666666"
     borderopacity="1"
     objecttolerance="10"
     gridtolerance="10"
     guidetolerance="10"
     inkscape:pageopacity="0"
     inkscape:pageshadow="2"
     inkscape:window-width="1565"
     inkscape:window-height="673"
     id="namedview3825"
     showgrid="false"
     inkscape:zoom="7.875"
     inkscape:cx="32"
     inkscape:cy="32"
     inkscape:window-x="0"
     inkscape:window-y="0"
     inkscape:window-maximized="0"
     inkscape:current-layer="Layer_1" /><g
     id="Grid_1_"><g
       id="Layer_1_1_"><g
         id="Grid"><g
           id="g3755"><rect
             stroke-miterlimit="10"
             width="512"
             height="512"
             id="rect3757"
             x="0"
             y="0"
             style="fill:none;stroke:#a9ccdb;stroke-miterlimit:10" /><line
             stroke-miterlimit="10"
             x1="0"
             y1="480"
             x2="512"
             y2="480"
             id="line3759"
             style="fill:none;stroke:#a9ccdb;stroke-miterlimit:10" /><line
             stroke-miterlimit="10"
             x1="0"
             y1="448"
             x2="512"
             y2="448"
             id="line3761"
             style="fill:none;stroke:#a9ccdb;stroke-miterlimit:10" /><line
             stroke-miterlimit="10"
             x1="0"
             y1="416"
             x2="512"
             y2="416"
             id="line3763"
             style="fill:none;stroke:#a9ccdb;stroke-miterlimit:10" /><line
             stroke-miterlimit="10"
             x1="0"
             y1="384"
             x2="512"
             y2="384"
             id="line3765"
             style="fill:none;stroke:#a9ccdb;stroke-miterlimit:10" /><line
             stroke-miterlimit="10"
             x1="0"
             y1="352"
             x2="512"
             y2="352"
             id="line3767"
             style="fill:none;stroke:#a9ccdb;stroke-miterlimit:10" /><line
             stroke-miterlimit="10"
             x1="0"
             y1="320"
             x2="512"
             y2="320"
             id="line3769"
             style="fill:none;stroke:#a9ccdb;stroke-miterlimit:10" /><line
             stroke-miterlimit="10"
             x1="0"
             y1="288"
             x2="512"
             y2="288"
             id="line3771"
             style="fill:none;stroke:#a9ccdb;stroke-miterlimit:10" /><line
             stroke-miterlimit="10"
             x1="0"
             y1="256"
             x2="512"
             y2="256"
             id="line3773"
             style="fill:none;stroke:#a9ccdb;stroke-miterlimit:10" /><line
             stroke-miterlimit="10"
             x1="0"
             y1="224"
             x2="512"
             y2="224"
             id="line3775"
             style="fill:none;stroke:#a9ccdb;stroke-miterlimit:10" /><line
             stroke-miterlimit="10"
             x1="0"
             y1="192"
             x2="512"
             y2="192"
             id="line3777"
             style="fill:none;stroke:#a9ccdb;stroke-miterlimit:10" /><line
             stroke-miterlimit="10"
             x1="0"
             y1="160"
             x2="512"
             y2="160"
             id="line3779"
             style="fill:none;stroke:#a9ccdb;stroke-miterlimit:10" /><line
             stroke-miterlimit="10"
             x1="0"
             y1="128"
             x2="512"
             y2="128"
             id="line3781"
             style="fill:none;stroke:#a9ccdb;stroke-miterlimit:10" /><line
             stroke-miterlimit="10"
             x1="0"
             y1="96"
             x2="512"
             y2="96"
             id="line3783"
             style="fill:none;stroke:#a9ccdb;stroke-miterlimit:10" /><line
             stroke-miterlimit="10"
             x1="0"
             y1="64"
             x2="512"
             y2="64"
             id="line3785"
             style="fill:none;stroke:#a9ccdb;stroke-miterlimit:10" /><line
             stroke-miterlimit="10"
             x1="0"
             y1="32"
             x2="512"
             y2="32"
             id="line3787"
             style="fill:none;stroke:#a9ccdb;stroke-miterlimit:10" /><line
             stroke-miterlimit="10"
             x1="480"
             y1="0"
             x2="480"
             y2="512"
             id="line3789"
             style="fill:none;stroke:#a9ccdb;stroke-miterlimit:10" /><line
             stroke-miterlimit="10"
             x1="448"
             y1="0"
             x2="448"
             y2="512"
             id="line3791"
             style="fill:none;stroke:#a9ccdb;stroke-miterlimit:10" /><line
             stroke-miterlimit="10"
             x1="416"
             y1="0"
             x2="416"
             y2="512"
             id="line3793"
             style="fill:none;stroke:#a9ccdb;stroke-miterlimit:10" /><line
             stroke-miterlimit="10"
             x1="384"
             y1="0"
             x2="384"
             y2="512"
             id="line3795"
             style="fill:none;stroke:#a9ccdb;stroke-miterlimit:10" /><line
             stroke-miterlimit="10"
             x1="352"
             y1="0"
             x2="352"
             y2="512"
             id="line3797"
             style="fill:none;stroke:#a9ccdb;stroke-miterlimit:10" /><line
             stroke-miterlimit="10"
             x1="320"
             y1="0"
             x2="320"
             y2="512"
             id="line3799"
             style="fill:none;stroke:#a9ccdb;stroke-miterlimit:10" /><line
             stroke-miterlimit="10"
             x1="288"
             y1="0"
             x2="288"
             y2="512"
             id="line3801"
             style="fill:none;stroke:#a9ccdb;stroke-miterlimit:10" /><line
             stroke-miterlimit="10"
             x1="256"
             y1="0"
             x2="256"
             y2="512"
             id="line3803"
             style="fill:none;stroke:#a9ccdb;stroke-miterlimit:10" /><line
             stroke-miterlimit="10"
             x1="224"
             y1="0"
             x2="224"
             y2="512"
             id="line3805"
             style="fill:none;stroke:#a9ccdb;stroke-miterlimit:10" /><line
             stroke-miterlimit="10"
             x1="192"
             y1="0"
             x2="192"
             y2="512"
             id="line3807"
             style="fill:none;stroke:#a9ccdb;stroke-miterlimit:10" /><line
             stroke-miterlimit="10"
             x1="160"
             y1="0"
             x2="160"
             y2="512"
             id="line3809"
             style="fill:none;stroke:#a9ccdb;stroke-miterlimit:10" /><line
             stroke-miterlimit="10"
             x1="128"
             y1="0"
             x2="128"
             y2="512"
             id="line3811"
             style="fill:none;stroke:#a9ccdb;stroke-miterlimit:10" /><line
             stroke-miterlimit="10"
             x1="96"
             y1="0"
             x2="96"
             y2="512"
             id="line3813"
             style="fill:none;stroke:#a9ccdb;stroke-miterlimit:10" /><line
             stroke-miterlimit="10"
             x1="64"
             y1="0"
             x2="64"
             y2="512"
             id="line3815"
             style="fill:none;stroke:#a9ccdb;stroke-miterlimit:10" /><line
             stroke-miterlimit="10"
             x1="32"
             y1="0"
             x2="32"
             y2="512"
             id="line3817"
             style="fill:none;stroke:#a9ccdb;stroke-miterlimit:10" /></g></g></g></g><g
     id="g3819"><g
       id="g3821"><path
         d="m 256,144 c -61.75,0 -112,50.25 -112,112 0,61.75 50.25,112 112,112 61.75,0 112,-50.25 112,-112 0,-61.75 -50.25,-112 -112,-112 z m 0,192 c -44.188,0 -80,-35.812 -80,-80 0,-44.188 35.812,-80 80,-80 44.188,0 80,35.812 80,80 0,44.188 -35.812,80 -80,80 z m 0,-224 c 8.833,0 16,-7.167 16,-16 l 0,-32 c 0,-8.833 -7.167,-16 -16,-16 -8.833,0 -16,7.167 -16,16 l 0,32 c 0,8.833 7.167,16 16,16 z m 0,288 c -8.833,0 -16,7.167 -16,16 l 0,32 c 0,8.833 7.167,16 16,16 8.833,0 16,-7.167 16,-16 l 0,-32 c 0,-8.833 -7.167,-16 -16,-16 z m 124.438,-245.833 22.625,-22.625 c 6.25,-6.25 6.25,-16.375 0,-22.625 -6.25,-6.25 -16.375,-6.25 -22.625,0 l -22.625,22.625 c -6.25,6.25 -6.25,16.375 0,22.625 6.249,6.25 16.375,6.25 22.625,0 z m -248.876,203.667 -22.625,22.625 c -6.25,6.249 -6.25,16.374 0,22.624 6.25,6.25 16.375,6.25 22.625,0 l 22.625,-22.624 c 6.25,-6.271 6.25,-16.376 0,-22.625 -6.249,-6.251 -16.375,-6.272 -22.625,0 z M 112,256 c 0,-8.833 -7.167,-16 -16,-16 l -32,0 c -8.833,0 -16,7.167 -16,16 0,8.833 7.167,16 16,16 l 32,0 c 8.833,0 16,-7.167 16,-16 z m 336,-16 -32,0 c -8.833,0 -16,7.167 -16,16 0,8.833 7.167,16 16,16 l 32,0 c 8.833,0 16,-7.167 16,-16 0,-8.833 -7.167,-16 -16,-16 z M 131.541,154.167 c 6.251,6.25 16.376,6.25 22.625,0 6.251,-6.25 6.251,-16.375 0,-22.625 l -22.625,-22.625 c -6.25,-6.25 -16.374,-6.25 -22.625,0 -6.25,6.25 -6.25,16.375 0,22.625 l 22.625,22.625 z m 248.918,203.645 c -6.271,-6.25 -16.376,-6.25 -22.625,0 -6.251,6.25 -6.271,16.375 0,22.625 l 22.625,22.625 c 6.249,6.25 16.374,6.25 22.624,0 6.25,-6.25 6.25,-16.374 0,-22.625 l -22.624,-22.625 z"
         id="path3823"
         inkscape:connector-curvature="0"
         style="clip-rule:evenodd;fill:#1d1d1b;fill-rule:evenodd" /></g></g></svg>