<?xml version="1.0" ?><!DOCTYPE svg  PUBLIC '-//W3C//DTD SVG 1.1//EN'  'http://www.w3.org/Graphics/SVG/1.1/DTD/svg11.dtd'><svg enable-background="new 0 0 128 128" height="128px" version="1.1" viewBox="0 0 128 128" width="128px" xml:space="preserve" xmlns="http://www.w3.org/2000/svg" xmlns:xlink="http://www.w3.org/1999/xlink"><g id="Layer_2"/><g id="Layer_1"><path d="   M64,98.897c0,0-25.304,0-28.461,0c-3.158,0-4.077-3.163-2.938-4.586c1.14-1.424,17.592-20.068,17.592-20.068s-9.01,0-10.59,0   c-3.114,0-3.953-2.866-2.363-4.638c1.28-1.428,18.049-20.277,18.049-20.277s-6.645,0-8.677,0c-2.033,0-3.392-2.665-1.903-4.443   c1.488-1.778,16.955-19.173,16.955-19.173s0.665-1.045,2.287-1.045s2.385,1.045,2.385,1.045s15.467,17.395,16.955,19.173   c1.488,1.779,0.13,4.443-1.903,4.443c-2.032,0-8.677,0-8.677,0S89.479,68.178,90.76,69.605c1.59,1.771,0.751,4.638-2.363,4.638   c-1.58,0-10.59,0-10.59,0s16.452,18.645,17.592,20.068c1.14,1.423,0.221,4.586-2.938,4.586C89.304,98.897,64,98.897,64,98.897" fill="none" stroke="#231F20" stroke-linecap="round" stroke-linejoin="round" stroke-miterlimit="10" stroke-width="5"/><path d="   M55.176,98.897v6.965c0,0,0.04,2.638,2.788,2.638s8.286,0,11.034,0s2.788-2.638,2.788-2.638v-6.965" fill="none" stroke="#231F20" stroke-linecap="round" stroke-linejoin="round" stroke-miterlimit="10" stroke-width="5"/></g></svg>