#define 1479047942024_width 58
#define 1479047942024_height 58
static char 1479047942024_bits[] = {
  0x00, 0x00, 0xFC, 0x1F, 0x00, 0x00, 0x00, 0x00, 0x00, 0x00, 0xFF, 0x7F, 
  0x00, 0x00, 0x00, 0x00, 0x00, 0xC0, 0xFF, 0xFF, 0x01, 0x00, 0x00, 0x00, 
  0x00, 0xE0, 0xFF, 0xFF, 0x03, 0x00, 0x00, 0x00, 0x00, 0xF0, 0x0F, 0xF0, 
  0x87, 0x03, 0x00, 0x00, 0x00, 0xF8, 0x03, 0xE0, 0xFF, 0x3F, 0x00, 0x00, 
  0x00, 0xF8, 0x01, 0x80, 0xFF, 0xFF, 0x00, 0x00, 0x00, 0xFC, 0x00, 0x00, 
  0xFF, 0xFF, 0x01, 0x00, 0x00, 0x7C, 0x00, 0x00, 0xFF, 0xFF, 0x03, 0x00, 
  0x00, 0x3C, 0x00, 0x00, 0x1E, 0xF0, 0x07, 0x00, 0x00, 0x3E, 0x00, 0x00, 
  0x0C, 0xC0, 0x07, 0x00, 0x00, 0x1E, 0x00, 0x00, 0x00, 0xC0, 0x0F, 0x00, 
  0x00, 0x1E, 0x00, 0x78, 0x00, 0x80, 0x0F, 0x00, 0x00, 0x1E, 0x00, 0x78, 
  0x00, 0x00, 0x0F, 0x00, 0x00, 0x1E, 0x00, 0x7C, 0x00, 0x00, 0x0F, 0x00, 
  0x00, 0x1E, 0x00, 0x7C, 0x00, 0x00, 0x0F, 0x00, 0x80, 0x1F, 0x00, 0x3E, 
  0x00, 0x00, 0x0F, 0x00, 0xF0, 0x1F, 0x00, 0x3E, 0x00, 0x00, 0x1F, 0x00, 
  0xF8, 0x3F, 0x00, 0xFF, 0x03, 0x00, 0x7F, 0x00, 0xFC, 0x3F, 0x00, 0xFF, 
  0x03, 0x00, 0xFF, 0x00, 0xFE, 0x00, 0x00, 0xFF, 0x03, 0x00, 0xFE, 0x01, 
  0x3F, 0x00, 0x00, 0xFF, 0x03, 0x00, 0xF0, 0x03, 0x1F, 0x00, 0x00, 0xF0, 
  0x01, 0x00, 0xE0, 0x03, 0x0F, 0x00, 0x00, 0xF0, 0x01, 0x00, 0xC0, 0x03, 
  0x0F, 0x00, 0x00, 0xF8, 0x00, 0x00, 0xC0, 0x03, 0x07, 0x00, 0x00, 0xF8, 
  0x00, 0x00, 0x80, 0x03, 0x07, 0x00, 0x00, 0x7C, 0x00, 0x00, 0x80, 0x03, 
  0x07, 0x00, 0x00, 0x7C, 0x00, 0x00, 0x80, 0x03, 0x07, 0x00, 0x00, 0x3C, 
  0x00, 0x00, 0x80, 0x03, 0x0F, 0x00, 0x00, 0x00, 0x00, 0x00, 0xC0, 0x03, 
  0x0F, 0x00, 0x00, 0x00, 0x00, 0x00, 0xC0, 0x03, 0x1F, 0x00, 0x00, 0x00, 
  0x00, 0x00, 0xE0, 0x03, 0x3F, 0x00, 0x00, 0x00, 0x00, 0x00, 0xF0, 0x03, 
  0xFE, 0x00, 0x00, 0x00, 0x00, 0x00, 0xFC, 0x01, 0xFC, 0xFF, 0xFF, 0xFF, 
  0xFF, 0xFF, 0xFF, 0x00, 0xF8, 0xFF, 0xFF, 0xFF, 0xFF, 0xFF, 0x7F, 0x00, 
  0xF0, 0xFF, 0xFF, 0xFF, 0xFF, 0xFF, 0x3F, 0x00, 0x80, 0xFF, 0xFF, 0xFF, 
  0xFF, 0xFF, 0x0F, 0x00, 0x00, 0x00, 0x00, 0x00, 0x00, 0x00, 0x00, 0x00, 
  0x00, 0x18, 0x0C, 0x87, 0xC3, 0x71, 0x00, 0x00, 0x00, 0x3C, 0x1E, 0x8F, 
  0xE7, 0xF1, 0x00, 0x00, 0x00, 0x3C, 0x1E, 0x8F, 0xE7, 0xF3, 0x00, 0x00, 
  0x00, 0x3C, 0x1E, 0x8F, 0xE7, 0xF3, 0x00, 0x00, 0x00, 0x3C, 0x1E, 0x8F, 
  0xE7, 0xF3, 0x00, 0x00, 0x00, 0x3C, 0x1E, 0x8F, 0xE7, 0xF3, 0x00, 0x00, 
  0x00, 0x3C, 0x1E, 0x8F, 0xE7, 0xF3, 0x00, 0x00, 0x00, 0x3C, 0x1E, 0x8F, 
  0xE7, 0xF3, 0x00, 0x00, 0x00, 0x3C, 0x1E, 0x8F, 0xE7, 0xF3, 0x00, 0x00, 
  0x00, 0x3C, 0x1E, 0x8F, 0xE7, 0x03, 0x00, 0x00, 0x00, 0x3C, 0x1E, 0x8F, 
  0xE7, 0x03, 0x00, 0x00, 0x00, 0x3C, 0x1E, 0x8F, 0xE7, 0x03, 0x00, 0x00, 
  0x00, 0x3C, 0x1E, 0x8F, 0xE7, 0x03, 0x00, 0x00, 0x00, 0x3C, 0x1E, 0x8F, 
  0xC7, 0x01, 0x00, 0x00, 0x00, 0x00, 0x1E, 0x80, 0x07, 0x00, 0x00, 0x00, 
  0x00, 0x00, 0x1E, 0x80, 0x07, 0x00, 0x00, 0x00, 0x00, 0x00, 0x1E, 0x80, 
  0x07, 0x00, 0x00, 0x00, 0x00, 0x00, 0x1E, 0x80, 0x07, 0x00, 0x00, 0x00, 
  0x00, 0x00, 0x1E, 0x80, 0x07, 0x00, 0x00, 0x00, };
