#define 1479047545547_width 58
#define 1479047545547_height 58
static char 1479047545547_bits[] = {
  0x00, 0x00, 0x00, 0x00, 0x00, 0x00, 0x00, 0x00, 0x00, 0x00, 0xE0, 0x07, 
  0x00, 0x00, 0x00, 0x00, 0x00, 0x00, 0xFC, 0x3F, 0x00, 0x00, 0x00, 0x00, 
  0x00, 0x00, 0xFF, 0xFF, 0x00, 0x00, 0x00, 0x00, 0x00, 0x80, 0xFF, 0xFF, 
  0x01, 0x00, 0x00, 0x00, 0x00, 0xC0, 0x3F, 0xFC, 0x03, 0x00, 0x00, 0x00, 
  0x00, 0xE0, 0x07, 0xE0, 0xF7, 0x0F, 0x00, 0x00, 0x00, 0xF0, 0x03, 0xC0, 
  0xFF, 0x3F, 0x00, 0x00, 0x00, 0xF0, 0x01, 0x80, 0xFF, 0x7F, 0x00, 0x00, 
  0x00, 0xF8, 0x00, 0x00, 0xFF, 0xFF, 0x00, 0x00, 0x00, 0x78, 0x00, 0x00, 
  0x1E, 0xF8, 0x01, 0x00, 0x00, 0x78, 0x00, 0x00, 0x06, 0xF0, 0x03, 0x00, 
  0x00, 0x3C, 0x00, 0x00, 0x00, 0xE0, 0x03, 0x00, 0x00, 0x3C, 0x00, 0x00, 
  0x00, 0xC0, 0x03, 0x00, 0x00, 0x3C, 0x00, 0x00, 0x00, 0xC0, 0x07, 0x00, 
  0x00, 0x3C, 0x00, 0x00, 0x00, 0x80, 0x07, 0x00, 0x00, 0x3C, 0x00, 0x00, 
  0x00, 0x80, 0x07, 0x00, 0x80, 0x3F, 0x00, 0x00, 0x00, 0x80, 0x07, 0x00, 
  0xE0, 0x7F, 0x00, 0x00, 0x00, 0x80, 0x1F, 0x00, 0xF0, 0x7F, 0x00, 0x00, 
  0x00, 0xC0, 0x3F, 0x00, 0xF8, 0x7F, 0x00, 0x00, 0x00, 0xC0, 0x7F, 0x00, 
  0xFC, 0x00, 0x00, 0x00, 0x00, 0x00, 0xFC, 0x00, 0x7C, 0x00, 0x00, 0x00, 
  0x00, 0x00, 0xF8, 0x00, 0x3E, 0x00, 0x00, 0x00, 0x00, 0x00, 0xF0, 0x01, 
  0x3E, 0x00, 0x00, 0x00, 0x00, 0x00, 0xF0, 0x01, 0x1E, 0x00, 0x00, 0x00, 
  0x00, 0x00, 0xE0, 0x01, 0x1E, 0x00, 0x00, 0x00, 0x00, 0x00, 0xE0, 0x01, 
  0x1E, 0x00, 0x00, 0x00, 0x00, 0x00, 0xE0, 0x01, 0x1E, 0x00, 0x00, 0x00, 
  0x00, 0x00, 0xE0, 0x01, 0x3E, 0x00, 0x00, 0x00, 0x00, 0x00, 0xF0, 0x01, 
  0x3C, 0x00, 0x00, 0x00, 0x00, 0x00, 0xF0, 0x00, 0x7C, 0x00, 0x00, 0x00, 
  0x00, 0x00, 0xF8, 0x00, 0xFC, 0x00, 0x00, 0x00, 0x00, 0x00, 0xFC, 0x00, 
  0xF8, 0xFF, 0xFF, 0xFF, 0xFF, 0xFF, 0x7F, 0x00, 0xF0, 0xFF, 0xFF, 0xFF, 
  0xFF, 0xFF, 0x3F, 0x00, 0xE0, 0xFF, 0xFF, 0xFF, 0xFF, 0xFF, 0x1F, 0x00, 
  0x80, 0xFF, 0xFF, 0xFF, 0xFF, 0xFF, 0x07, 0x00, 0x00, 0x00, 0x00, 0x00, 
  0x00, 0x00, 0x00, 0x00, 0x00, 0x00, 0x00, 0x00, 0x00, 0x00, 0x00, 0x00, 
  0x00, 0x70, 0x1C, 0x8F, 0xE3, 0x79, 0x00, 0x00, 0x00, 0x78, 0x3C, 0x8F, 
  0xE3, 0x79, 0x00, 0x00, 0x00, 0x78, 0x3C, 0xCF, 0xE3, 0x79, 0x00, 0x00, 
  0x00, 0x78, 0x3C, 0xCF, 0xE3, 0x79, 0x00, 0x00, 0x00, 0x78, 0x3C, 0xCF, 
  0xE3, 0x79, 0x00, 0x00, 0x00, 0x78, 0x3C, 0xCF, 0xE3, 0x79, 0x00, 0x00, 
  0x00, 0x78, 0x3C, 0xCF, 0xE3, 0x79, 0x00, 0x00, 0x00, 0x78, 0x3C, 0xCF, 
  0xE3, 0x39, 0x00, 0x00, 0x00, 0x78, 0x3C, 0xCF, 0xE3, 0x01, 0x00, 0x00, 
  0x00, 0x78, 0x3C, 0xCF, 0xE3, 0x01, 0x00, 0x00, 0x00, 0x78, 0x3C, 0xCF, 
  0xE3, 0x01, 0x00, 0x00, 0x00, 0x78, 0x3C, 0xCF, 0xE3, 0x01, 0x00, 0x00, 
  0x00, 0x70, 0x3C, 0xC6, 0xC3, 0x00, 0x00, 0x00, 0x00, 0x00, 0x3C, 0xC0, 
  0x03, 0x00, 0x00, 0x00, 0x00, 0x00, 0x3C, 0xC0, 0x03, 0x00, 0x00, 0x00, 
  0x00, 0x00, 0x3C, 0xC0, 0x03, 0x00, 0x00, 0x00, 0x00, 0x00, 0x3C, 0x80, 
  0x03, 0x00, 0x00, 0x00, 0x00, 0x00, 0x18, 0x80, 0x03, 0x00, 0x00, 0x00, 
  0x00, 0x00, 0x00, 0x00, 0x00, 0x00, 0x00, 0x00, };
