#define 1479047379874_width 58
#define 1479047379874_height 58
static char 1479047379874_bits[] = {
  0x00, 0x00, 0x00, 0x00, 0x00, 0x00, 0x00, 0x00, 0x00, 0x00, 0x00, 0x00, 
  0x00, 0x00, 0x00, 0x00, 0x00, 0x00, 0x00, 0x00, 0x00, 0x00, 0x00, 0x00, 
  0x00, 0x00, 0x00, 0x00, 0x00, 0x00, 0x00, 0x00, 0x00, 0x00, 0x00, 0x00, 
  0x00, 0x00, 0x00, 0x00, 0xC0, 0x0F, 0x00, 0x00, 0x00, 0x00, 0x00, 0x00, 
  0xF0, 0x3F, 0x00, 0x00, 0x00, 0x00, 0x00, 0x00, 0xF8, 0x7F, 0x00, 0x00, 
  0x00, 0x00, 0x00, 0x00, 0xFC, 0xFF, 0x00, 0x00, 0x00, 0x00, 0x00, 0x00, 
  0x1E, 0xF8, 0x00, 0x00, 0x00, 0x00, 0x00, 0x00, 0xDE, 0xF3, 0x00, 0x00, 
  0x00, 0x00, 0x00, 0x00, 0xCE, 0xF3, 0x00, 0x00, 0x00, 0x00, 0x00, 0x00, 
  0xEF, 0xE1, 0x00, 0x00, 0x00, 0x00, 0x00, 0x00, 0xEF, 0xF1, 0x00, 0x00, 
  0x00, 0x00, 0x00, 0x00, 0xEF, 0xF9, 0x00, 0x00, 0xFC, 0x03, 0x00, 0x00, 
  0xEF, 0xFF, 0x00, 0x00, 0xFC, 0x07, 0x00, 0x00, 0xDE, 0x7F, 0x00, 0x00, 
  0xFC, 0x07, 0x00, 0x00, 0x9E, 0x3F, 0x00, 0x00, 0xFC, 0x07, 0x00, 0x00, 
  0x3E, 0x0F, 0x00, 0x00, 0x00, 0x00, 0x00, 0x00, 0xFC, 0x00, 0x00, 0x00, 
  0x00, 0x00, 0x00, 0x00, 0xF8, 0x07, 0x00, 0x00, 0x00, 0x00, 0x00, 0x00, 
  0xF0, 0xFF, 0xFF, 0xFF, 0x1F, 0xFF, 0x01, 0x00, 0xE0, 0xFF, 0xFF, 0xFF, 
  0x1F, 0xFF, 0x01, 0x00, 0x80, 0xFF, 0xFF, 0xFF, 0x1F, 0xFF, 0x01, 0x00, 
  0x00, 0x00, 0x00, 0x00, 0x00, 0x00, 0x00, 0x00, 0x00, 0x00, 0x00, 0x00, 
  0x00, 0x00, 0x00, 0x00, 0x00, 0x00, 0x00, 0x00, 0x00, 0x00, 0x00, 0x00, 
  0x00, 0x00, 0xE0, 0xFF, 0xFF, 0x3F, 0xFE, 0x01, 0x00, 0x00, 0xE0, 0xFF, 
  0xFF, 0x3F, 0xFF, 0x03, 0x00, 0x00, 0xE0, 0xFF, 0xFF, 0x3F, 0xFF, 0x03, 
  0x00, 0x00, 0xE0, 0xFF, 0xFF, 0x3F, 0xFE, 0x01, 0x00, 0x00, 0x00, 0x00, 
  0x00, 0x00, 0x00, 0x00, 0x00, 0x00, 0x00, 0x00, 0x00, 0x00, 0x00, 0x00, 
  0x00, 0x00, 0x00, 0x00, 0x00, 0x00, 0x00, 0x00, 0x00, 0x00, 0xFC, 0xFF, 
  0xFF, 0xFF, 0x1F, 0x00, 0x00, 0x00, 0xFF, 0xFF, 0xFF, 0xFF, 0x1F, 0x00, 
  0x00, 0x80, 0xFF, 0xFF, 0xFF, 0xFF, 0x1F, 0x00, 0x00, 0xC0, 0x7F, 0x00, 
  0x00, 0x00, 0x00, 0x00, 0x00, 0xE0, 0x07, 0x00, 0x00, 0x00, 0x00, 0x00, 
  0x00, 0xF0, 0x73, 0x00, 0x00, 0x00, 0x00, 0x00, 0x00, 0xF0, 0xFD, 0x01, 
  0x00, 0x00, 0x00, 0x00, 0x00, 0xF0, 0xFE, 0x03, 0x00, 0x00, 0x00, 0x00, 
  0x00, 0x70, 0xFE, 0x07, 0x00, 0x00, 0x00, 0x00, 0x00, 0x70, 0xDF, 0x07, 
  0x00, 0x00, 0x00, 0x00, 0x00, 0x70, 0x8F, 0x0F, 0x00, 0x00, 0x00, 0x00, 
  0x00, 0x70, 0x1F, 0x0F, 0x00, 0x00, 0x00, 0x00, 0x00, 0x70, 0x3E, 0x0F, 
  0x00, 0x00, 0x00, 0x00, 0x00, 0xF0, 0x18, 0x07, 0x00, 0x00, 0x00, 0x00, 
  0x00, 0xE0, 0x83, 0x07, 0x00, 0x00, 0x00, 0x00, 0x00, 0xE0, 0xFF, 0x07, 
  0x00, 0x00, 0x00, 0x00, 0x00, 0xC0, 0xFF, 0x03, 0x00, 0x00, 0x00, 0x00, 
  0x00, 0x80, 0xFF, 0x01, 0x00, 0x00, 0x00, 0x00, 0x00, 0x00, 0x7E, 0x00, 
  0x00, 0x00, 0x00, 0x00, 0x00, 0x00, 0x00, 0x00, 0x00, 0x00, 0x00, 0x00, 
  0x00, 0x00, 0x00, 0x00, 0x00, 0x00, 0x00, 0x00, 0x00, 0x00, 0x00, 0x00, 
  0x00, 0x00, 0x00, 0x00, 0x00, 0x00, 0x00, 0x00, 0x00, 0x00, 0x00, 0x00, 
  0x00, 0x00, 0x00, 0x00, 0x00, 0x00, 0x00, 0x00, };
