#define 1479048584873_width 58
#define 1479048584873_height 58
static char 1479048584873_bits[] = {
  0x00, 0x00, 0x00, 0x00, 0x00, 0x00, 0x00, 0x00, 0x00, 0x00, 0x00, 0x00, 
  0x00, 0x00, 0x00, 0x00, 0x00, 0x00, 0x00, 0x00, 0x00, 0x00, 0x00, 0x00, 
  0x00, 0x00, 0x00, 0x00, 0x00, 0x00, 0x00, 0x00, 0x00, 0x00, 0x00, 0x00, 
  0x00, 0x00, 0x00, 0x00, 0x00, 0x00, 0x00, 0x00, 0x00, 0x00, 0x00, 0x00, 
  0x00, 0x00, 0x00, 0x00, 0x00, 0x00, 0x00, 0x00, 0x00, 0x00, 0x00, 0x00, 
  0x00, 0x00, 0x00, 0x00, 0x00, 0x00, 0x00, 0x00, 0x00, 0x0C, 0x00, 0x00, 
  0x00, 0x00, 0x00, 0x00, 0x00, 0x1E, 0x00, 0x00, 0x00, 0x00, 0x00, 0x00, 
  0x00, 0x1E, 0x00, 0x00, 0x00, 0x00, 0x00, 0x00, 0x00, 0x1E, 0x00, 0x00, 
  0x00, 0x00, 0x00, 0x00, 0x00, 0x1E, 0x00, 0x00, 0x00, 0x00, 0x00, 0x00, 
  0x0E, 0x1E, 0x0C, 0x00, 0x00, 0x00, 0x00, 0x00, 0x1E, 0x1E, 0x1E, 0x00, 
  0x00, 0x00, 0x00, 0x00, 0xFE, 0x7F, 0x1F, 0x00, 0x00, 0x00, 0xFC, 0x01, 
  0xFE, 0xFF, 0x0F, 0x00, 0x00, 0x00, 0xFF, 0x0F, 0xFC, 0xFF, 0x07, 0x00, 
  0x00, 0xC0, 0xFF, 0x3F, 0xF8, 0xE1, 0x03, 0x00, 0x00, 0xE0, 0xFF, 0x7F, 
  0xF8, 0xC0, 0x07, 0x00, 0x00, 0xF0, 0x03, 0xFE, 0x7C, 0x80, 0x07, 0x00, 
  0x00, 0xF8, 0x01, 0xF8, 0xFF, 0x03, 0xFF, 0x01, 0x00, 0x7C, 0x00, 0xF0, 
  0xFF, 0x07, 0xFF, 0x03, 0x00, 0x7C, 0x00, 0xE0, 0xFF, 0x0F, 0xFF, 0x03, 
  0x00, 0x3E, 0x00, 0xC0, 0x83, 0x1F, 0xFF, 0x01, 0x00, 0x1E, 0x00, 0xC0, 
  0x01, 0xBF, 0x07, 0x00, 0x00, 0x1E, 0x00, 0x00, 0x00, 0xBE, 0x07, 0x00, 
  0x00, 0x1E, 0x00, 0x00, 0x00, 0xFC, 0x07, 0x00, 0x00, 0x1E, 0x00, 0x00, 
  0x00, 0xF8, 0x07, 0x00, 0x00, 0x0E, 0x00, 0x00, 0x00, 0xF8, 0x0F, 0x00, 
  0x00, 0x1E, 0x00, 0x00, 0x00, 0xF8, 0x1F, 0x00, 0xE0, 0x1F, 0x00, 0x00, 
  0x00, 0x78, 0x1F, 0x00, 0xF0, 0x1F, 0x00, 0x00, 0x00, 0xF8, 0x1F, 0x00, 
  0xF8, 0x1F, 0x00, 0x00, 0x00, 0xF8, 0x03, 0x00, 0xFC, 0x01, 0x00, 0x00, 
  0x00, 0xF0, 0x07, 0x00, 0x3E, 0x00, 0x00, 0x00, 0x00, 0xC0, 0x0F, 0x00, 
  0x1E, 0x00, 0x00, 0x00, 0x00, 0x80, 0x0F, 0x00, 0x1E, 0x00, 0x00, 0x00, 
  0x00, 0x00, 0x0F, 0x00, 0x0F, 0x00, 0x00, 0x00, 0x00, 0x00, 0x1E, 0x00, 
  0x0F, 0x00, 0x00, 0x00, 0x00, 0x00, 0x1E, 0x00, 0x0F, 0x00, 0x00, 0x00, 
  0x00, 0x00, 0x1E, 0x00, 0x0F, 0x00, 0x00, 0x00, 0x00, 0x00, 0x1E, 0x00, 
  0x1F, 0x00, 0x00, 0x00, 0x00, 0x00, 0x0F, 0x00, 0x1E, 0x00, 0x00, 0x00, 
  0x00, 0x00, 0x0F, 0x00, 0x3E, 0x00, 0x00, 0x00, 0x00, 0x80, 0x0F, 0x00, 
  0xFC, 0x00, 0x00, 0x00, 0x00, 0xE0, 0x07, 0x00, 0xFC, 0xFF, 0xFF, 0xFF, 
  0xFF, 0xFF, 0x03, 0x00, 0xF8, 0xFF, 0xFF, 0xFF, 0xFF, 0xFF, 0x01, 0x00, 
  0xE0, 0xFF, 0xFF, 0xFF, 0xFF, 0xFF, 0x00, 0x00, 0x80, 0xFF, 0xFF, 0xFF, 
  0xFF, 0x1F, 0x00, 0x00, 0x00, 0x00, 0x00, 0x00, 0x00, 0x00, 0x00, 0x00, 
  0x00, 0x00, 0x00, 0x00, 0x00, 0x00, 0x00, 0x00, 0x00, 0x00, 0x00, 0x00, 
  0x00, 0x00, 0x00, 0x00, 0x00, 0x00, 0x00, 0x00, 0x00, 0x00, 0x00, 0x00, 
  0x00, 0x00, 0x00, 0x00, 0x00, 0x00, 0x00, 0x00, 0x00, 0x00, 0x00, 0x00, 
  0x00, 0x00, 0x00, 0x00, 0x00, 0x00, 0x00, 0x00, 0x00, 0x00, 0x00, 0x00, 
  0x00, 0x00, 0x00, 0x00, 0x00, 0x00, 0x00, 0x00, };
