#define 1479048950744_width 58
#define 1479048950744_height 58
static char 1479048950744_bits[] = {
  0x00, 0x00, 0x00, 0x00, 0x00, 0x00, 0x00, 0x00, 0x00, 0x00, 0x00, 0x00, 
  0x00, 0x00, 0x00, 0x00, 0x00, 0x00, 0x00, 0x00, 0x00, 0x00, 0x00, 0x00, 
  0x00, 0x00, 0x00, 0x00, 0x00, 0x00, 0x00, 0x00, 0x00, 0x00, 0x00, 0x00, 
  0x00, 0x00, 0x00, 0x00, 0x00, 0x00, 0x00, 0x00, 0x00, 0x00, 0x00, 0x00, 
  0x00, 0x00, 0x00, 0x00, 0x00, 0x00, 0x00, 0x00, 0x00, 0x00, 0x00, 0x00, 
  0x00, 0x00, 0x00, 0x00, 0x00, 0x00, 0x00, 0x00, 0x00, 0x00, 0x00, 0x00, 
  0x00, 0x00, 0x00, 0x00, 0x00, 0x00, 0x00, 0x00, 0x00, 0x00, 0x00, 0x00, 
  0x00, 0x00, 0x00, 0x00, 0x00, 0x00, 0x00, 0x00, 0x00, 0x3C, 0x00, 0x00, 
  0x00, 0x00, 0x00, 0x00, 0x00, 0xF8, 0x01, 0x00, 0x00, 0x00, 0x00, 0x00, 
  0x00, 0xF8, 0x03, 0x00, 0x00, 0x00, 0xF0, 0x07, 0x00, 0xF0, 0x0F, 0x00, 
  0x00, 0x00, 0xFE, 0x3F, 0x00, 0xF0, 0x0F, 0x00, 0x00, 0x00, 0xFF, 0x7F, 
  0x00, 0xF0, 0x1F, 0x00, 0x00, 0x80, 0xFF, 0xFF, 0x01, 0xF0, 0x3E, 0x00, 
  0x00, 0xC0, 0x0F, 0xF8, 0xFB, 0xF1, 0x3C, 0x00, 0x00, 0xE0, 0x03, 0xE0, 
  0xFF, 0xF7, 0x7C, 0x00, 0x00, 0xF0, 0x01, 0xC0, 0xFF, 0x7F, 0x78, 0x00, 
  0x00, 0xF0, 0x00, 0x80, 0xFF, 0x7F, 0x78, 0x00, 0x00, 0xF0, 0x00, 0x80, 
  0x0F, 0x7E, 0x70, 0x00, 0x00, 0x78, 0x00, 0x00, 0x03, 0x7C, 0x70, 0x00, 
  0x00, 0x78, 0x00, 0x00, 0x00, 0xF8, 0x70, 0x00, 0x00, 0x78, 0x00, 0x00, 
  0x00, 0xF0, 0x70, 0x00, 0x00, 0x78, 0x00, 0x00, 0x00, 0xF0, 0x78, 0x00, 
  0x00, 0x78, 0x00, 0x00, 0x00, 0xF0, 0x78, 0x00, 0x00, 0x7C, 0x00, 0x00, 
  0x00, 0xE0, 0x7C, 0x00, 0x80, 0x7F, 0x00, 0x00, 0x00, 0xF0, 0x3F, 0x00, 
  0xC0, 0x7F, 0x00, 0x00, 0x00, 0xF0, 0x3F, 0x00, 0xE0, 0xFF, 0x00, 0x00, 
  0x00, 0xF0, 0x1F, 0x00, 0xF0, 0x03, 0x00, 0x00, 0x00, 0x80, 0x1F, 0x00, 
  0xF8, 0x00, 0x00, 0x00, 0x00, 0x00, 0x1F, 0x00, 0x78, 0x00, 0x00, 0x00, 
  0x00, 0x00, 0x3E, 0x00, 0x78, 0x00, 0x00, 0x00, 0x00, 0x00, 0x3C, 0x00, 
  0x38, 0x00, 0x00, 0x00, 0x00, 0x00, 0x3C, 0x00, 0x38, 0x00, 0x00, 0x00, 
  0x00, 0x00, 0x3C, 0x00, 0x38, 0x00, 0x00, 0x00, 0x00, 0x00, 0x3C, 0x00, 
  0x78, 0x00, 0x00, 0x00, 0x00, 0x00, 0x3C, 0x00, 0x78, 0x00, 0x00, 0x00, 
  0x00, 0x00, 0x3E, 0x00, 0xF8, 0x00, 0x00, 0x00, 0x00, 0x00, 0x1E, 0x00, 
  0xF0, 0x01, 0x00, 0x00, 0x00, 0x80, 0x1F, 0x00, 0xF0, 0xFF, 0xFF, 0xFF, 
  0xFF, 0xFF, 0x0F, 0x00, 0xE0, 0xFF, 0xFF, 0xFF, 0xFF, 0xFF, 0x07, 0x00, 
  0xC0, 0xFF, 0xFF, 0xFF, 0xFF, 0xFF, 0x03, 0x00, 0x00, 0xFE, 0xFF, 0xFF, 
  0xFF, 0xFF, 0x00, 0x00, 0x00, 0x00, 0x00, 0x00, 0x00, 0x00, 0x00, 0x00, 
  0x00, 0x00, 0x00, 0x00, 0x00, 0x00, 0x00, 0x00, 0x00, 0x00, 0x00, 0x00, 
  0x00, 0x00, 0x00, 0x00, 0x00, 0x00, 0x00, 0x00, 0x00, 0x00, 0x00, 0x00, 
  0x00, 0x00, 0x00, 0x00, 0x00, 0x00, 0x00, 0x00, 0x00, 0x00, 0x00, 0x00, 
  0x00, 0x00, 0x00, 0x00, 0x00, 0x00, 0x00, 0x00, 0x00, 0x00, 0x00, 0x00, 
  0x00, 0x00, 0x00, 0x00, 0x00, 0x00, 0x00, 0x00, 0x00, 0x00, 0x00, 0x00, 
  0x00, 0x00, 0x00, 0x00, 0x00, 0x00, 0x00, 0x00, 0x00, 0x00, 0x00, 0x00, 
  0x00, 0x00, 0x00, 0x00, 0x00, 0x00, 0x00, 0x00, };
