#define 1479048109267_width 58
#define 1479048109267_height 58
static char 1479048109267_bits[] = {
  0x00, 0x00, 0x00, 0x30, 0x00, 0x00, 0x00, 0x00, 0x00, 0x00, 0x00, 0x78, 
  0x00, 0x00, 0x00, 0x00, 0x00, 0x00, 0x00, 0x78, 0x00, 0x00, 0x00, 0x00, 
  0x00, 0x00, 0x00, 0x78, 0x00, 0x00, 0x00, 0x00, 0x00, 0x00, 0x00, 0x78, 
  0x00, 0x00, 0x00, 0x00, 0x00, 0x00, 0x00, 0x78, 0x00, 0x00, 0x00, 0x00, 
  0x00, 0x00, 0x00, 0x78, 0x00, 0x00, 0x00, 0x00, 0x00, 0x00, 0x00, 0x78, 
  0x00, 0x00, 0x00, 0x00, 0x00, 0x00, 0x00, 0x78, 0x00, 0x00, 0x00, 0x00, 
  0x00, 0x00, 0x00, 0x78, 0x00, 0x00, 0x00, 0x00, 0x00, 0x38, 0x00, 0x78, 
  0x00, 0x70, 0x00, 0x00, 0x00, 0x7C, 0x00, 0x78, 0x00, 0xF8, 0x00, 0x00, 
  0x00, 0xFC, 0x00, 0x78, 0x00, 0xFC, 0x00, 0x00, 0x00, 0xFC, 0x01, 0xFF, 
  0x03, 0xFE, 0x00, 0x00, 0x00, 0xF8, 0xE3, 0xFF, 0x1F, 0x7F, 0x00, 0x00, 
  0x00, 0xF0, 0xF7, 0xFF, 0xBF, 0x3F, 0x00, 0x00, 0x00, 0xE0, 0xFF, 0xFF, 
  0xFF, 0x1F, 0x00, 0x00, 0x00, 0xC0, 0xFF, 0x01, 0xFE, 0x0F, 0x00, 0x00, 
  0x00, 0x80, 0x7F, 0x00, 0xF8, 0x07, 0x00, 0x00, 0x00, 0x00, 0x3F, 0x00, 
  0xF0, 0x03, 0x00, 0x00, 0x00, 0x80, 0x0F, 0x00, 0xC0, 0x07, 0x00, 0x00, 
  0x00, 0xC0, 0x0F, 0x00, 0xC0, 0x0F, 0x00, 0x00, 0x00, 0xC0, 0x07, 0x00, 
  0x80, 0x0F, 0x00, 0x00, 0x00, 0xC0, 0x03, 0x00, 0x00, 0x0F, 0x00, 0x00, 
  0x00, 0xE0, 0x03, 0x00, 0x00, 0x1F, 0x00, 0x00, 0x00, 0xE0, 0x01, 0x00, 
  0x00, 0x1E, 0x00, 0x00, 0x00, 0xE0, 0x01, 0x00, 0x00, 0x1E, 0x00, 0x00, 
  0xFE, 0xFF, 0x01, 0x00, 0x00, 0xFE, 0xFF, 0x01, 0xFF, 0xFF, 0x01, 0x00, 
  0x00, 0xFE, 0xFF, 0x03, 0xFF, 0xFF, 0x01, 0x00, 0x00, 0xFE, 0xFF, 0x03, 
  0xFE, 0xFF, 0x01, 0x00, 0x00, 0xFE, 0xFF, 0x01, 0x00, 0xE0, 0x01, 0x00, 
  0x00, 0x1E, 0x00, 0x00, 0x00, 0xE0, 0x01, 0x00, 0x00, 0x1E, 0x00, 0x00, 
  0x00, 0xE0, 0x03, 0x00, 0x00, 0x1F, 0x00, 0x00, 0x00, 0xC0, 0x03, 0x00, 
  0x00, 0x0F, 0x00, 0x00, 0x00, 0xC0, 0x07, 0x00, 0x80, 0x0F, 0x00, 0x00, 
  0x00, 0xC0, 0x0F, 0x00, 0xC0, 0x0F, 0x00, 0x00, 0x00, 0x80, 0x0F, 0x00, 
  0xC0, 0x07, 0x00, 0x00, 0x00, 0x00, 0x3F, 0x00, 0xF0, 0x03, 0x00, 0x00, 
  0x00, 0x80, 0x7F, 0x00, 0xF8, 0x07, 0x00, 0x00, 0x00, 0xC0, 0xFF, 0x01, 
  0xFE, 0x0F, 0x00, 0x00, 0x00, 0xE0, 0xFF, 0xFF, 0xFF, 0x1F, 0x00, 0x00, 
  0x00, 0xF0, 0xF7, 0xFF, 0xBF, 0x3F, 0x00, 0x00, 0x00, 0xF8, 0xE3, 0xFF, 
  0x1F, 0x7F, 0x00, 0x00, 0x00, 0xFC, 0x01, 0xFF, 0x03, 0xFE, 0x00, 0x00, 
  0x00, 0xFC, 0x00, 0x78, 0x00, 0xFC, 0x00, 0x00, 0x00, 0x7C, 0x00, 0x78, 
  0x00, 0xF8, 0x00, 0x00, 0x00, 0x38, 0x00, 0x78, 0x00, 0x70, 0x00, 0x00, 
  0x00, 0x00, 0x00, 0x78, 0x00, 0x00, 0x00, 0x00, 0x00, 0x00, 0x00, 0x78, 
  0x00, 0x00, 0x00, 0x00, 0x00, 0x00, 0x00, 0x78, 0x00, 0x00, 0x00, 0x00, 
  0x00, 0x00, 0x00, 0x78, 0x00, 0x00, 0x00, 0x00, 0x00, 0x00, 0x00, 0x78, 
  0x00, 0x00, 0x00, 0x00, 0x00, 0x00, 0x00, 0x78, 0x00, 0x00, 0x00, 0x00, 
  0x00, 0x00, 0x00, 0x78, 0x00, 0x00, 0x00, 0x00, 0x00, 0x00, 0x00, 0x78, 
  0x00, 0x00, 0x00, 0x00, 0x00, 0x00, 0x00, 0x78, 0x00, 0x00, 0x00, 0x00, 
  0x00, 0x00, 0x00, 0x30, 0x00, 0x00, 0x00, 0x00, };
